<svg width="12" height="25" viewBox="0 0 12 25" fill="none" xmlns="http://www.w3.org/2000/svg">
<path fill-rule="evenodd" clip-rule="evenodd" d="M3.74901 1.36927C4.7608 0.404683 6.211 0 7.9693 0H11.0374H11.9185V5.90784H11.0381H8.63957C8.58756 5.90784 8.54571 5.90979 8.51257 5.91253C8.50292 5.99262 8.49652 6.10619 8.49652 6.26743V7.56774H12L11.5146 13.3278H8.49729V25H2.30481L2.30558 13.3771H0V7.56774H2.30411V5.37759C2.30411 3.7557 2.71989 2.35039 3.74901 1.36927ZM6.73573 8.49365V6.26743C6.73573 5.81878 6.76103 5.19763 7.11059 4.71678C7.51726 4.15738 8.13551 4.05599 8.63957 4.05599H10.1577V1.85185H7.9693C6.43 1.85185 5.4878 2.21105 4.93158 2.74132C4.39271 3.25505 4.0649 4.07557 4.0649 5.37759V9.41959H1.76079V11.5252H4.06649L4.06573 23.1481H6.73649V11.476H9.90292L10.0762 9.41959H6.73573V8.49365Z" fill="#D9D6BF"/>
</svg>
