<svg width="41" height="25" viewBox="0 0 41 25" fill="none" xmlns="http://www.w3.org/2000/svg">
<path d="M23.9019 11.7501H12.2767L12.2901 15.0796H20.1284C19.2014 19.1334 16.3403 21.6196 12.5 21.6196C7.46335 21.6196 3.3804 17.5366 3.3804 12.5C3.3804 7.46335 7.46335 3.38042 12.5 3.38042C14.8952 3.38042 17.0731 4.30499 18.7002 5.81441L21.2725 3.59761C19.0157 1.37353 15.9192 0 12.5 0C5.596 0 0 5.59721 0 12.5C0 19.404 5.596 25 12.5 25C19.1298 25 23.9201 19.9439 23.9201 13.0399L23.9019 11.7501Z" fill="#D9D6BF"/>
<path d="M40.6091 11.8882H35.8103V7.08936H32.749V11.8882H27.9502V14.9495H32.749V19.7483H35.8103V14.9495H40.6091V11.8882Z" fill="#D9D6BF"/>
</svg>
