<svg width="46" height="46" viewBox="0 0 46 46" fill="none" xmlns="http://www.w3.org/2000/svg">
<path d="M0 0V46H46V0H0ZM8.86134 43.0671C5.71829 43.0671 3.17017 40.519 3.17017 37.376C3.17017 34.2329 5.71829 31.6848 8.86134 31.6848C12.0044 31.6848 14.5525 34.2329 14.5525 37.376C14.5525 40.519 12.0044 43.0671 8.86134 43.0671ZM7.50536 7.50536C11.4592 3.55154 21.2737 6.91946 29.6921 15.0175H24.5681C19.2934 15.0175 15.0175 19.2934 15.0175 24.5681V29.6921C6.92003 21.2742 3.55211 11.4592 7.50536 7.50536ZM38.4941 38.4941C34.5403 42.4479 24.7258 39.08 16.3074 30.9819H21.4313C26.7061 30.9819 30.9819 26.7061 30.9819 21.4313V16.3074C39.0794 24.7258 42.4473 34.5403 38.4941 38.4941ZM37.1381 15.1322C33.995 15.1322 31.4469 12.5841 31.4469 9.44103C31.4469 6.29797 33.995 3.74986 37.1381 3.74986C40.2811 3.74986 42.8293 6.29797 42.8293 9.44103C42.8293 12.5841 40.2811 15.1322 37.1381 15.1322Z" fill="#37302B"/>
</svg>
