<svg width="20" height="20" viewBox="0 0 20 20" fill="none" xmlns="http://www.w3.org/2000/svg">
<path fill-rule="evenodd" clip-rule="evenodd" d="M9.05263 2C5.15757 2 2 5.15757 2 9.05263C2 12.9477 5.15757 16.1053 9.05263 16.1053C12.9477 16.1053 16.1053 12.9477 16.1053 9.05263C16.1053 5.15757 12.9477 2 9.05263 2ZM0 9.05263C0 4.053 4.053 0 9.05263 0C14.0522 0 18.1053 4.053 18.1053 9.05263C18.1053 11.1906 17.3641 13.1554 16.1247 14.7043L19.7077 18.2935C20.0979 18.6844 20.0974 19.3175 19.7065 19.7077C19.3156 20.0979 18.6825 20.0974 18.2923 19.7065L14.7112 16.1192C13.1613 17.3619 11.1938 18.1053 9.05263 18.1053C4.053 18.1053 0 14.0522 0 9.05263Z" fill="#7F6D5F"/>
</svg>
