<svg width="31" height="25" viewBox="0 0 31 25" fill="none" xmlns="http://www.w3.org/2000/svg">
<path fill-rule="evenodd" clip-rule="evenodd" d="M29.1657 0L28.2971 2.68168C28.2197 2.92061 28.129 3.15349 28.0257 3.3795L31 2.0806L28.9236 5.1465C28.2056 6.20674 27.3216 7.15359 26.3121 7.94538C26.3854 16.0945 20.1399 25 9.21378 25C5.81958 25 2.65885 24.0188 0 22.3381L0.71345 20.3744C2.58241 20.5921 4.44699 20.3065 6.12678 19.5625C4.47274 18.7815 3.19351 17.3535 2.62861 15.6101L2.07298 13.8954L2.08607 13.8978C1.11697 12.7117 0.566882 11.2117 0.603704 9.65476L0.645596 7.88345L1.09538 8.12992C0.388037 6.30503 0.510366 4.20318 1.5598 2.42743L2.3491 1.09186L3.33953 2.29015C5.66982 5.10947 9.03505 7.05823 12.8638 7.57606C12.8185 3.99598 15.7493 0.881368 19.5808 0.881368C21.2818 0.881368 22.8388 1.50503 24.0225 2.53267C24.978 2.29252 25.8805 1.91982 26.7093 1.43553L29.1657 0ZM3.05414 11.3093C3.58293 12.6972 4.81843 13.8243 6.41714 14.141L6.48877 16.2228C6.16664 16.3094 5.83438 16.373 5.49491 16.4114C6.3115 17.4021 7.55037 18.0424 8.94013 18.0683L11.9874 18.1252L9.58985 19.9802C8.18805 21.0648 6.58949 21.8241 4.90055 22.233C6.26551 22.6402 7.71306 22.8595 9.21378 22.8595C18.9341 22.8595 24.4601 14.7833 24.1275 7.47268L24.1012 6.89503L24.5769 6.55676C24.6748 6.48713 24.7715 6.41578 24.8669 6.34275L24.2883 4.67158C24.1597 4.70087 24.0304 4.7282 23.9003 4.75352L23.3101 4.86841L22.8983 4.43595C22.0686 3.56444 20.8893 3.02182 19.5808 3.02182C16.6507 3.02182 14.4936 5.71897 15.1555 8.52085L15.4822 9.90355L14.0438 9.83248C9.69911 9.61778 5.78375 7.80541 2.88905 4.98089C2.59017 6.66958 3.28947 8.4616 4.8424 9.48438L7.99806 11.5627L4.20482 11.444C3.81216 11.4317 3.42753 11.3857 3.05414 11.3093Z" fill="#D9D6BF"/>
</svg>
