<svg width="19" height="20" viewBox="0 0 19 20" fill="none" xmlns="http://www.w3.org/2000/svg">
<path d="M4.62207 5.00618C4.62207 2.51748 6.63955 0.5 9.12825 0.5C11.6169 0.5 13.6344 2.51748 13.6344 5.00618C13.6344 7.49487 11.6169 9.51235 9.12825 9.51235C6.63955 9.51235 4.62207 7.49487 4.62207 5.00618ZM9.12825 1.26689C7.06307 1.26689 5.38896 2.94103 5.38896 5.00618C5.38896 7.07132 7.06307 8.74547 9.12825 8.74547C11.1934 8.74547 12.8675 7.07132 12.8675 5.00618C12.8675 2.94103 11.1934 1.26689 9.12825 1.26689Z" fill="#37302B" stroke="#37302B"/>
<path d="M13.1924 13.0853L13.1941 13.0847C13.2723 13.0595 13.3549 13.0461 13.439 13.0461H13.8406C15.5804 13.0461 16.9909 14.4566 16.9909 16.1964V17.5961C16.9909 17.8628 16.7975 18.0899 16.5345 18.1326M13.1924 13.0853L1.72323 18.1326C6.62788 18.9333 11.63 18.9333 16.5345 18.1326M13.1924 13.0853L12.173 13.4183C12.1729 13.4183 12.1729 13.4183 12.1729 13.4183C10.195 14.0641 8.06284 14.0641 6.08489 13.4183C6.08487 13.4183 6.08485 13.4183 6.08483 13.4183L5.06538 13.0853L5.06397 13.0848C4.98558 13.0595 4.90285 13.0461 4.81873 13.0461H4.41721C2.67733 13.0461 1.26689 14.4566 1.26689 16.1964V17.5961C1.26689 17.8626 1.46004 18.0896 1.72279 18.1325L13.1924 13.0853ZM16.5345 18.1326C16.5345 18.1326 16.5344 18.1326 16.5344 18.1326L16.4544 17.639L16.535 18.1325C16.5348 18.1325 16.5347 18.1325 16.5345 18.1326ZM6.32286 12.6893L6.32292 12.6893C8.14624 13.2845 10.1116 13.2845 11.9349 12.6893L11.9349 12.6893L12.9542 12.3563C12.9543 12.3563 12.9543 12.3563 12.9544 12.3563C12.9544 12.3563 12.9544 12.3563 12.9544 12.3563C13.111 12.3052 13.2746 12.2792 13.439 12.2792H13.8406C16.0041 12.2792 17.7578 14.033 17.7578 16.1964V17.5961C17.7578 18.2383 17.2924 18.7858 16.6585 18.8894C11.6718 19.7035 6.58601 19.7035 1.59923 18.8894C0.965387 18.7858 0.5 18.2383 0.5 17.5961V16.1964C0.5 14.033 2.25379 12.2792 4.41721 12.2792H4.81873C4.98322 12.2792 5.14678 12.3052 5.30334 12.3563C5.30341 12.3563 5.30348 12.3563 5.30354 12.3563L6.32286 12.6893Z" fill="#37302B" stroke="#37302B"/>
</svg>
