<svg width="35" height="25" viewBox="0 0 35 25" fill="none" xmlns="http://www.w3.org/2000/svg">
<path d="M34.9919 8.81079C35.0706 6.4975 34.5729 4.20153 33.5451 2.13605C32.8478 1.28853 31.88 0.716594 30.8105 0.519891C26.3866 0.111852 21.9444 -0.0553899 17.503 0.018882C13.0777 -0.0587609 8.65151 0.103084 4.24317 0.50373C3.37161 0.664888 2.56505 1.08044 1.9219 1.69969C0.490988 3.0411 0.331998 5.33604 0.173007 7.27543C-0.057669 10.7624 -0.057669 14.2612 0.173007 17.7481C0.219003 18.8397 0.37889 19.9232 0.649979 20.9805C0.841682 21.7967 1.22954 22.5519 1.77881 23.1784C2.42633 23.8305 3.25168 24.2697 4.14777 24.439C7.57547 24.8691 11.0292 25.0474 14.4822 24.9724C20.0468 25.0532 24.9278 24.9724 30.6992 24.5198C31.6173 24.3609 32.4659 23.9211 33.1318 23.2592C33.5769 22.8066 33.9093 22.2525 34.1016 21.6431C34.6702 19.8695 34.9495 18.0134 34.9283 16.1481C34.9919 15.2431 34.9919 9.78048 34.9919 8.81079ZM13.9098 17.1178V7.11382L23.322 12.1401C20.6828 13.6269 17.2009 15.3077 13.9098 17.1178Z" fill="#D9D6BF"/>
</svg>
